<svg width="44" height="45" viewBox="0 0 44 45" fill="none" xmlns="http://www.w3.org/2000/svg">
<path d="M22.0001 40.8517C32.1253 40.8517 40.3334 32.6436 40.3334 22.5183C40.3334 12.3931 32.1253 4.185 22.0001 4.185C11.8749 4.185 3.66675 12.3931 3.66675 22.5183C3.66675 32.6436 11.8749 40.8517 22.0001 40.8517Z" fill="#091515"/>
<path d="M22 13.2233C18.205 13.2233 15.125 16.3033 15.125 20.0983C15.125 23.82 18.04 26.845 21.9083 26.955C21.9633 26.955 22.0367 26.955 22.0733 26.955C22.11 26.955 22.165 26.955 22.2017 26.955C22.22 26.955 22.2383 26.955 22.2383 26.955C25.9417 26.8267 28.8567 23.82 28.875 20.0983C28.875 16.3033 25.795 13.2233 22 13.2233Z" fill="white"/>
<path d="M34.4301 35.9933C31.1667 39 26.8034 40.8517 22.0001 40.8517C17.1967 40.8517 12.8334 39 9.57007 35.9933C10.0101 34.325 11.2017 32.8033 12.9434 31.63C17.9484 28.2933 26.0884 28.2933 31.0567 31.63C32.8167 32.8033 33.9901 34.325 34.4301 35.9933Z" fill="white"/>
</svg>
